<?xml version="1.0" encoding="utf-8"?>
<!-- Generator: Adobe Illustrator 23.0.3, SVG Export Plug-In . SVG Version: 6.00 Build 0)  -->
<svg version="1.1" id="Layer_1" xmlns="http://www.w3.org/2000/svg" xmlns:xlink="http://www.w3.org/1999/xlink" x="0px" y="0px"
	 viewBox="0 0 500 500" style="enable-background:new 0 0 500 500;" xml:space="preserve">
<path d="M243.58,450c-2.9-0.65-5.84-1.16-8.69-1.97c-23.28-6.66-38.33-21.67-44.99-44.91c-0.75-2.6-1.77-3.17-4.21-3.16
	c-24.09,0.08-48.17,0.1-72.26,0.02c-15.95-0.05-28.15-11.07-29.58-26.91c-0.87-9.69,2.66-17.95,10-24.32
	c11.34-9.85,20.66-21.25,27.5-34.63c8.45-16.53,12.37-34.09,12.31-52.66c-0.05-17.83-0.77-35.75,0.64-53.48
	c3.34-42.06,24.35-73.32,60.99-93.96c6.4-3.61,13.43-6.3,20.43-8.59c7.01-2.29,14.35-3.54,22.19-5.39c0-1.03,0-2.54,0-4.05
	c0-10.16,0.28-20.32-0.09-30.46c-0.28-7.62,2.53-12.78,9.66-15.53c2.08,0,4.17,0,6.25,0c7.15,3.32,9.53,9.03,9.28,16.71
	c-0.37,11.16-0.1,22.35-0.1,33.47c6.84,1.53,13.49,2.66,19.93,4.51c45.95,13.25,79.54,53.37,83.36,101.01
	c1.52,18.89,0.68,37.97,0.8,56.97c0.16,24.72,7.16,47.25,22.12,66.94c5.47,7.2,12.25,13.43,18.6,19.92
	c8.37,8.56,11.35,18.5,7.85,30.03c-3.73,12.29-14.79,20.36-27.92,20.41c-23.82,0.09-47.64,0.03-71.46,0.03c-1.42,0-2.85,0-4.37,0
	c-0.36,1.13-0.69,2.09-0.98,3.06c-7.74,25.89-24.83,41.37-51.47,46.24c-0.6,0.11-1.16,0.46-1.74,0.69
	C252.95,450,248.27,450,243.58,450z M250.06,375c45.17,0,90.34-0.01,135.52,0.02c2.58,0,5.6,0.02,5.97-2.94
	c0.23-1.82-1.18-4.44-2.67-5.79c-31.48-28.42-46.95-63.83-46.86-106.15c0.03-14.19,0.21-28.38-0.09-42.57
	c-0.14-6.6-0.58-13.32-1.99-19.75c-10.83-49.48-56.99-80.1-106.94-71.19c-39.43,7.03-71.39,42.19-73.75,82.16
	c-1.04,17.52-0.62,35.13-0.59,52.7c0.06,30.67-8.58,58.56-27.04,83.05c-6.07,8.05-13.75,14.87-20.49,22.43
	c-1.19,1.33-2.32,3.89-1.8,5.23c0.53,1.36,3.09,2.02,4.86,2.75c0.78,0.32,1.8,0.06,2.71,0.06C161.28,375,205.67,375,250.06,375z
	 M215.61,400.19c2.85,14.07,20.29,25.64,37.03,24.74c14.88-0.8,31.19-13.31,32.27-24.74C261.82,400.19,238.73,400.19,215.61,400.19z
	"/>
<path d="M433.57,209.41c0,2.84,0.09,5.31-0.02,7.78c-0.28,6.38-5.1,11.4-11.28,11.84c-6.59,0.47-12.36-3.56-13.22-10.05
	c-0.86-6.55-0.69-13.24-1.33-19.83c-3.92-39.76-19.54-74.32-46.43-103.82c-1.31-1.44-2.7-2.82-4.03-4.25
	c-5.85-6.24-6.17-13.95-0.8-19.03c5.3-5,12.85-4.43,18.7,1.52c11.18,11.36,20.94,23.84,29.17,37.48
	C422.66,141.41,432.24,174.37,433.57,209.41z"/>
<path d="M66.39,210.97c2.84-53.3,22.05-99.22,59.26-137.44c5.8-5.96,13.38-6.46,18.66-1.37c5.37,5.17,5.2,12.7-0.67,18.7
	c-22.97,23.5-38.6,51.09-46.48,83.03c-3.44,13.95-5.03,28.13-5.17,42.49c-0.06,6.08-3.99,11.09-9.4,12.4
	c-5.45,1.32-11.7-1.04-13.85-6.17C67.23,219.03,67.12,214.87,66.39,210.97z"/>
</svg>
