<?xml version="1.0" encoding="utf-8"?>
<!-- Generator: Adobe Illustrator 23.0.3, SVG Export Plug-In . SVG Version: 6.00 Build 0)  -->
<svg version="1.1" id="Layer_1" xmlns="http://www.w3.org/2000/svg" xmlns:xlink="http://www.w3.org/1999/xlink" x="0px" y="0px"
	 viewBox="0 0 500 500" style="enable-background:new 0 0 500 500;" xml:space="preserve">
<path d="M147.9,139.93c-5.27-9.19-10.42-18.15-15.55-27.13c-3.4-5.95-2.79-8.24,2.99-11.56c6.8-3.9,13.57-7.85,20.39-11.71
	c4.98-2.83,7.49-2.17,10.36,2.77c5.35,9.19,10.61,18.42,16.06,27.89c4.68-1.68,9.14-3.67,13.8-4.87
	c10.28-2.65,20.63-5.03,31.02-7.24c2.32-0.49,3.48-0.98,3.4-3.56c-0.15-4.85-0.04-9.71-0.04-15c-4.19,0-7.81,0.08-11.41-0.02
	c-4.09-0.11-6.33-2.1-6.4-6.2c-0.16-8.96-0.16-17.94,0-26.9c0.07-4.04,2.33-6.31,6.37-6.33c20.74-0.1,41.47-0.1,62.21-0.01
	c4.27,0.02,6.52,2.29,6.58,6.57c0.14,8.82,0.14,17.66-0.01,26.48c-0.07,4.33-2.29,6.29-6.64,6.4c-3.48,0.08-6.96,0.02-11.12,0.02
	c0,5.71-0.08,11.11,0.1,16.49c0.02,0.65,1.36,1.71,2.19,1.82c15.62,2.09,30.7,6.18,45.64,12.55c1-1.69,1.99-3.31,2.94-4.95
	c4.47-7.76,8.91-15.55,13.41-23.29c2.75-4.71,5.28-5.4,10.06-2.7c7.19,4.06,14.35,8.17,21.47,12.35c4.66,2.74,5.34,5.38,2.65,10.11
	c-4.63,8.15-9.35,16.26-14.01,24.39c-0.69,1.19-1.29,2.43-1.94,3.66c44.92,35.6,69.16,81.51,69.18,138.96
	c0.02,47.66-17.52,88.61-51.48,121.99c-68.54,67.38-178.86,65.05-245-4.9C55.34,322.2,64.29,201.78,147.9,139.93z M246.3,438.11
	c89.08,1.6,159.7-67.82,163.56-152.64c4.03-88.51-64.71-164.89-156.42-167.3c-87.23-2.29-161.04,68.01-163.17,155.14
	C88.1,362.58,157.58,435.97,246.3,438.11z M224.6,61.91c0,5.26,0,10.42,0,15.59c17.2,0,34.07,0,51.03,0c0-5.33,0-10.4,0-15.59
	C258.51,61.91,241.74,61.91,224.6,61.91z M157.74,133.36c4.72-2.75,9.12-5.31,13.78-8.01c-4.58-7.97-8.99-15.64-13.53-23.52
	c-4.78,2.75-9.22,5.3-13.82,7.94C148.78,117.79,153.21,125.48,157.74,133.36z M342.19,101.82c-4.58,7.99-8.99,15.67-13.52,23.56
	c4.8,2.76,9.2,5.29,13.82,7.95c4.58-7.99,8.99-15.66,13.53-23.57C351.26,107.03,346.83,104.49,342.19,101.82z M242.42,89.77
	c0,5.6,0,10.94,0,16.47c5.24,0,10.19,0,15.38,0c0-5.58,0-10.92,0-16.47C252.55,89.77,247.6,89.77,242.42,89.77z"/>
<path d="M116.67,278.07c0.03-73.62,60.07-133.3,134.02-133.23c72.94,0.07,132.78,60.06,132.83,133.16
	c0.05,73.46-60.01,133.55-133.39,133.47C176.51,411.38,116.64,351.54,116.67,278.07z M194.44,386.14
	c15.8,8.12,32.08,12.48,49.77,13.43c0-4.78-0.04-9.23,0.01-13.68c0.05-4.44,2.36-7.19,5.91-7.16c3.54,0.03,5.79,2.77,5.84,7.25
	c0.05,4.44,0.01,8.89,0.01,13.65c18.02-1.12,34.61-5.43,50.34-13.79c-2.35-4.06-4.63-7.91-6.82-11.81
	c-2.26-4.02-1.68-7.24,1.55-9.07c3.19-1.81,6.26-0.68,8.67,3.3c2.29,3.79,4.5,7.64,6.84,11.62c14.54-9.74,26.31-21.38,35.41-35.68
	c-0.62-0.53-0.81-0.74-1.05-0.88c-3.38-1.98-6.78-3.93-10.16-5.92c-4.14-2.44-5.41-5.71-3.52-8.94c1.88-3.21,5.17-3.64,9.52-1.17
	c3.72,2.11,7.42,4.26,11.1,6.38c7.82-12.8,14.83-39.97,12.8-49.6c-4.38,0-8.85,0.12-13.31-0.03c-4.33-0.15-6.65-2.41-6.58-6.01
	c0.07-3.57,2.42-5.59,6.85-5.68c4.45-0.08,8.91-0.02,13.8-0.02c-0.81-18.1-5.39-34.55-13.65-50.45c-4.09,2.39-7.79,4.59-11.53,6.72
	c-4.16,2.37-7.66,1.78-9.46-1.51c-1.74-3.17-0.55-6.13,3.49-8.57c3.77-2.28,7.55-4.52,11.5-6.89
	c-9.66-14.51-21.37-26.22-35.79-35.54c-2.41,4.14-4.57,7.9-6.79,11.61c-2.43,4.07-5.36,5.24-8.58,3.49
	c-3.31-1.8-3.91-5.25-1.56-9.43c2.16-3.84,4.39-7.65,6.69-11.65c-15.82-8.11-32.09-12.47-49.77-13.38c0,4.67,0.03,8.98-0.01,13.29
	c-0.04,4.76-2.31,7.61-5.96,7.54c-3.64-0.07-5.76-2.87-5.79-7.72c-0.03-4.3-0.01-8.6-0.01-13.15c-18.06,1.04-34.62,5.45-50.37,13.78
	c2.47,4.22,5.09,8.07,6.99,12.24c0.86,1.88,1.04,4.79,0.19,6.59c-1.89,3.97-7.3,3.7-9.91-0.32c-2.62-4.05-4.99-8.26-7.55-12.54
	c-14.47,9.69-26.14,21.32-35.52,35.78c3.57,2.07,6.81,3.95,10.05,5.84c5.34,3.1,6.79,5.97,4.82,9.5c-2,3.58-5.26,3.83-10.54,0.8
	c-3.36-1.92-6.72-3.84-10.32-5.9c-7.99,15.84-12.61,31.99-13.22,49.73c4.85,0,9.17-0.07,13.48,0.02c4.64,0.1,7.12,2.25,7.09,5.93
	c-0.02,3.68-2.49,5.71-7.19,5.79c-4.32,0.07-8.63,0.01-13.43,0.01c0.75,18.16,5.34,34.67,13.67,50.42c4.29-2.51,8-4.76,11.78-6.89
	c3.87-2.18,7.37-1.49,9.11,1.68c1.68,3.06,0.62,6.12-3.09,8.4c-3.81,2.35-7.69,4.56-11.87,7.02c9.54,14.39,21.28,26.2,35.82,35.57
	c2.49-4.28,4.68-8.18,7.01-12c2.22-3.65,5.39-4.67,8.44-2.89c3,1.75,3.7,5.11,1.68,8.8C199.2,378.01,196.91,381.86,194.44,386.14z"
	/>
<path d="M276.54,283.98c-0.51,1.4-0.92,2.58-1.37,3.74c-4.62,11.88-16.26,18.62-29.24,16.92c-11.49-1.5-20.93-11.28-22.55-23.36
	c-1.58-11.74,5.48-23.75,16.97-27.97c3.31-1.22,3.96-2.85,3.94-6.02c-0.14-17.08-0.1-34.17-0.04-51.25c0.01-4.12,2.5-6.67,6.01-6.57
	c3.35,0.09,5.54,2.55,5.72,6.46c0.05,0.98,0.01,1.96,0.01,2.94c0,16.38,0.07,32.77-0.07,49.15c-0.02,2.8,0.69,4.09,3.48,5.06
	c7.7,2.68,13.09,8.09,15.76,15.77c1,2.87,2.44,3.44,5.16,3.42c16.38-0.11,32.77-0.06,49.15-0.04c1.67,0,3.39,0.01,5,0.39
	c3.01,0.71,4.85,3.08,4.1,5.86c-0.54,2.02-2.67,3.87-4.52,5.18c-1.06,0.75-2.99,0.32-4.52,0.32c-16.1,0.01-32.21,0.01-48.31,0.01
	C279.69,283.98,278.16,283.98,276.54,283.98z M249.92,263.11c-8.24,0.09-14.9,6.8-14.91,15c-0.01,8.38,6.83,15.11,15.28,15.05
	c8.21-0.06,14.94-6.82,14.92-14.99C265.2,269.78,258.33,263.02,249.92,263.11z"/>
</svg>
